<svg width="180" height="40" viewBox="0 0 180 40" fill="none" xmlns="http://www.w3.org/2000/svg" role="img" aria-label="MeetPay">
  <g transform="translate(0 6)">
    <path fill="#10B981" d="M23.2 26.4c-.9.6-2 1-3.1 1h-9.1c-2 0-3.8-1-4.8-2.7l-4.6-7.8c-1-1.7-1-3.8 0-5.5L6.1 3.7c1-1.7 2.8-2.7 4.8-2.7h9.1c1.1 0 2.2.3 3.1 1-.7.5-1.2 1-1.7 1.8l-4.6 7.8c-1 1.7-1 3.8 0 5.5l4.6 7.8c.4.7 1 1.3 1.7 1.8ZM29.4 11.4l-4-6.9-4 6.9c-1 1.7-1 3.8 0 5.5l4 6.9 4-6.9c1-1.7 1-3.8 0-5.5Z"/>
  </g>
  <text x="42" y="27" font-family="Inter, ui-sans-serif, system-ui, sans-serif" font-weight="700" font-size="22" letter-spacing="-0.04em" fill="#FAFAFA">MeetPay</text>
</svg>
